<svg width="12" height="12" viewBox="0 0 12 12" fill="none" xmlns="http://www.w3.org/2000/svg">
<path fill-rule="evenodd" clip-rule="evenodd" d="M10.5963 2.73233C10.6901 2.82609 10.7427 2.95325 10.7427 3.08583C10.7427 3.21841 10.6901 3.34557 10.5963 3.43933L4.97534 9.06083C4.92426 9.11193 4.86362 9.15247 4.79688 9.18012C4.73013 9.20778 4.65859 9.22201 4.58634 9.22201C4.51409 9.22201 4.44255 9.20778 4.3758 9.18012C4.30906 9.15247 4.24842 9.11193 4.19734 9.06083L1.40434 6.26783C1.35789 6.22138 1.32104 6.16623 1.29589 6.10553C1.27075 6.04483 1.25781 5.97978 1.25781 5.91408C1.25781 5.84838 1.27075 5.78333 1.29589 5.72263C1.32104 5.66194 1.35789 5.60679 1.40434 5.56033C1.4508 5.51388 1.50595 5.47703 1.56664 5.45188C1.62734 5.42674 1.69239 5.4138 1.75809 5.4138C1.82379 5.4138 1.88884 5.42674 1.94954 5.45188C2.01024 5.47703 2.06539 5.51388 2.11184 5.56033L4.58684 8.03533L9.88884 2.73233C9.9826 2.6386 10.1098 2.58594 10.2423 2.58594C10.3749 2.58594 10.5026 2.6386 10.5963 2.73233Z" fill="#23252A"/>
</svg>
