<svg width="60" height="53" viewBox="0 0 60 53" fill="none" xmlns="http://www.w3.org/2000/svg">
<path fill-rule="evenodd" clip-rule="evenodd" d="M29.6232 0.721526C16.2439 0.866904 3.15865 7.26591 3.15865 14.7627C3.15865 15.877 3.39565 16.9604 3.84293 17.9977C4.61613 20.3877 6.90031 22.777 10.7436 24.7628C14.9105 26.9157 20.57 28.3873 26.9499 28.7119C30.4653 28.7671 36.0841 27.399 36.7167 21.5077V0.22269C36.7167 0.22269 38.2489 0.541768 40.262 1.03257C42.2751 1.52338 50.2252 4.04492 53.5934 6.5573C56.9587 9.06747 59.2463 12.3542 59.2463 16.1625C59.2463 20.9803 55.6218 24.9406 50.6273 27.6492C46.5184 29.6685 40.873 32.7629 40.262 39.6765L38.7453 52.8889H37.7881L36.7167 40.1363C36.1824 33.8465 30.3833 32.5674 26.8033 32.2543C19.9947 31.9119 13.8145 30.34 9.11616 27.9125C3.86692 25.2003 0 21.1388 0 16.1625C0 11.1862 3.86692 7.12464 9.11616 4.41246C14.4556 1.65368 21.7087 0 29.6232 0V0.721526ZM40.262 21.2305C40.9337 27.2952 46.4955 25.7576 50.2491 23.7667C53.9047 21.4611 55.701 18.7503 55.701 16.1625C55.701 13.8898 54.3385 11.536 51.4737 9.39916C48.77 7.38249 44.9045 5.70942 40.262 4.67441V21.2305Z" fill="white"/>
<circle cx="15.6805" cy="18.6831" r="3.95394" fill="white"/>
</svg>
