<svg width="140" height="40" viewBox="0 0 140 40" fill="none" xmlns="http://www.w3.org/2000/svg">
<path d="M134.88 32.6226L137.521 25.5106H140.009L135.231 37.4339C134.876 38.3288 134.428 38.9803 133.889 39.3882C133.349 39.7962 132.678 40.0002 131.875 40.0003C131.533 40.0003 131.211 39.9804 130.908 39.9409C130.619 39.9146 130.342 39.862 130.079 39.783V37.7893H131.52C131.836 37.7893 132.112 37.7497 132.349 37.6708C132.586 37.605 132.797 37.4734 132.981 37.276C133.178 37.0786 133.343 36.789 133.474 36.4074L133.744 35.6818L129.822 25.5106H132.369L134.88 32.6226Z" fill="#23252A"/>
<path fill-rule="evenodd" clip-rule="evenodd" d="M114.183 25.2144C115.117 25.2144 115.92 25.425 116.591 25.8461C117.276 26.2672 117.809 26.8529 118.19 27.603C118.572 28.3532 118.763 29.2415 118.763 30.268C118.763 31.2814 118.585 32.1829 118.23 32.9725C117.874 33.7621 117.355 34.3873 116.67 34.8479C115.999 35.2954 115.176 35.5191 114.203 35.5191C113.479 35.5191 112.814 35.3809 112.209 35.1045C111.617 34.8282 111.169 34.4465 110.866 33.9596V39.783H108.458V25.5106H110.689L110.847 26.9911C111.136 26.4252 111.584 25.9909 112.189 25.6882C112.794 25.3723 113.459 25.2144 114.183 25.2144ZM113.63 27.4057C113.077 27.4057 112.591 27.5307 112.169 27.7807C111.761 28.0308 111.446 28.3796 111.222 28.827C110.998 29.2745 110.886 29.7943 110.886 30.3865C110.886 30.9655 110.998 31.4788 111.222 31.9262C111.446 32.3737 111.761 32.7291 112.169 32.9923C112.591 33.2423 113.077 33.3674 113.63 33.3674C114.196 33.3674 114.683 33.2423 115.091 32.9923C115.499 32.7291 115.808 32.3737 116.019 31.9262C116.229 31.4788 116.335 30.9655 116.335 30.3865C116.335 29.8074 116.229 29.2942 116.019 28.8467C115.808 28.3993 115.499 28.0505 115.091 27.8004C114.683 27.5372 114.196 27.4057 113.63 27.4057Z" fill="#23252A"/>
<path d="M92.1603 25.2144C92.8841 25.2144 93.5224 25.3461 94.0751 25.6093C94.6279 25.8725 95.0556 26.241 95.3583 26.7148C95.6742 27.1885 95.8387 27.7413 95.8518 28.3729H93.5619C93.5619 27.9518 93.4303 27.6228 93.1671 27.3859C92.9039 27.1358 92.5354 27.0108 92.0616 27.0108C91.5878 27.0108 91.2193 27.1161 90.9561 27.3267C90.6929 27.5372 90.5614 27.8202 90.5613 28.1755C90.5613 28.7151 90.9825 29.0836 91.8248 29.281L93.5816 29.6956C94.3976 29.8798 95.0096 30.1759 95.4175 30.5839C95.8387 30.9919 96.0492 31.5709 96.0492 32.3211C96.0492 32.9791 95.8781 33.5516 95.536 34.0386C95.1938 34.5123 94.7135 34.8809 94.0949 35.1441C93.4764 35.3941 92.7657 35.5191 91.9629 35.5191C90.7521 35.5191 89.7848 35.223 89.061 34.6308C88.3503 34.0386 87.995 33.2621 87.995 32.3014H90.285C90.2982 32.7225 90.4561 33.0581 90.7588 33.3081C91.0615 33.5582 91.4826 33.6832 92.0221 33.6832C92.6011 33.6832 93.0355 33.5779 93.325 33.3674C93.6277 33.1568 93.7791 32.8738 93.7791 32.5185C93.7791 32.2816 93.7001 32.0711 93.5421 31.8868C93.3842 31.7026 93.0881 31.5644 92.6538 31.4722L90.8969 31.0577C90.0152 30.8603 89.3572 30.5444 88.9229 30.1101C88.5017 29.6627 88.2912 29.0507 88.2912 28.2742C88.2912 27.6425 88.4556 27.0964 88.7847 26.6357C89.1268 26.1751 89.5874 25.8264 90.1665 25.5895C90.7455 25.3394 91.4102 25.2144 92.1603 25.2144Z" fill="#23252A"/>
<path fill-rule="evenodd" clip-rule="evenodd" d="M82.2169 25.2342C83.2302 25.2342 84.1251 25.4513 84.9016 25.8856C85.6912 26.3199 86.3098 26.9253 86.7572 27.7017C87.2047 28.465 87.4284 29.3534 87.4284 30.3668C87.4284 31.3801 87.2047 32.275 86.7572 33.0515C86.3098 33.8148 85.6912 34.4136 84.9016 34.8479C84.1251 35.2822 83.2302 35.4993 82.2169 35.4993C81.2167 35.4993 80.3218 35.2822 79.5321 34.8479C78.7425 34.4136 78.124 33.8148 77.6765 33.0515C77.2291 32.275 77.0053 31.3801 77.0053 30.3668C77.0053 29.3534 77.2291 28.465 77.6765 27.7017C78.124 26.9253 78.7425 26.3199 79.5321 25.8856C80.3218 25.4513 81.2167 25.2342 82.2169 25.2342ZM82.2169 27.3859C81.6641 27.3859 81.1772 27.5109 80.756 27.7609C80.3481 28.011 80.0191 28.3598 79.7691 28.8072C79.5322 29.2415 79.4137 29.7614 79.4137 30.3668C79.4137 30.959 79.5322 31.4788 79.7691 31.9262C80.0191 32.3737 80.3481 32.7224 80.756 32.9725C81.1772 33.2225 81.6641 33.3476 82.2169 33.3476C82.7696 33.3476 83.2566 33.2225 83.6777 32.9725C84.0988 32.7224 84.4278 32.3737 84.6647 31.9262C84.9016 31.4788 85.02 30.959 85.02 30.3668C85.02 29.7614 84.9016 29.2415 84.6647 28.8072C84.4278 28.3598 84.0988 28.011 83.6777 27.7609C83.2566 27.5109 82.7696 27.3859 82.2169 27.3859Z" fill="#23252A"/>
<path fill-rule="evenodd" clip-rule="evenodd" d="M101.93 25.2342C102.943 25.2342 103.838 25.4513 104.615 25.8856C105.404 26.3199 106.023 26.9253 106.47 27.7017C106.918 28.465 107.141 29.3534 107.141 30.3668C107.141 31.3801 106.918 32.275 106.47 33.0515C106.023 33.8148 105.404 34.4136 104.615 34.8479C103.838 35.2822 102.943 35.4993 101.93 35.4993C100.93 35.4993 100.035 35.2822 99.2451 34.8479C98.4554 34.4136 97.8369 33.8148 97.3895 33.0515C96.942 32.275 96.7183 31.3801 96.7182 30.3668C96.7182 29.3534 96.942 28.465 97.3895 27.7017C97.8369 26.9253 98.4555 26.3199 99.2451 25.8856C100.035 25.4513 100.93 25.2342 101.93 25.2342ZM101.93 27.3859C101.377 27.3859 100.89 27.5109 100.469 27.7609C100.061 28.011 99.7319 28.3598 99.4819 28.8072C99.245 29.2415 99.1266 29.7614 99.1266 30.3668C99.1266 30.959 99.245 31.4788 99.4819 31.9262C99.7319 32.3737 100.061 32.7224 100.469 32.9725C100.89 33.2225 101.377 33.3476 101.93 33.3476C102.483 33.3475 102.97 33.2225 103.391 32.9725C103.812 32.7224 104.141 32.3737 104.378 31.9262C104.614 31.4788 104.733 30.959 104.733 30.3668C104.733 29.7614 104.614 29.2415 104.378 28.8072C104.141 28.3598 103.812 28.011 103.391 27.7609C102.97 27.5109 102.483 27.3859 101.93 27.3859Z" fill="#23252A"/>
<path fill-rule="evenodd" clip-rule="evenodd" d="M51.9235 20.832C52.8974 20.832 53.7397 21.0294 54.4503 21.4242C55.161 21.819 55.7138 22.3718 56.1086 23.0825C56.5034 23.78 56.7008 24.6025 56.7008 25.5501C56.7008 26.4713 56.5034 27.2938 56.1086 28.0176C55.7138 28.7282 55.161 29.2876 54.4503 29.6956C53.7397 30.0904 52.8974 30.2877 51.9235 30.2877H48.7453V35.2625H46.2185V20.832H51.9235ZM48.7453 28.0374H51.3905C52.2591 28.0374 52.9172 27.8202 53.3647 27.3859C53.8253 26.9384 54.0556 26.3199 54.0556 25.5303C54.0556 24.7407 53.8252 24.1353 53.3647 23.7142C52.9172 23.293 52.2723 23.0825 51.43 23.0825H48.7453V28.0374Z" fill="#23252A"/>
<path d="M60.3069 26.774C60.6096 26.3002 61.0307 25.9251 61.5703 25.6487C62.123 25.3592 62.7547 25.2144 63.4654 25.2144C64.663 25.2144 65.571 25.5764 66.1895 26.3002C66.8212 27.024 67.1371 28.011 67.1371 29.2613V35.2625H64.7288V29.8338C64.7288 29.281 64.6432 28.827 64.4722 28.4717C64.3011 28.1163 64.0641 27.8531 63.7614 27.682C63.4588 27.4978 63.1034 27.4057 62.6955 27.4057C62.1954 27.4057 61.761 27.5175 61.3926 27.7412C61.0372 27.9518 60.7609 28.2479 60.5635 28.6296C60.3793 29.0112 60.2871 29.4456 60.2871 29.9325V35.2625H57.8788V20.5754H60.3069V26.774Z" fill="#23252A"/>
<path d="M75.6437 35.2625H73.255V20.5754H75.6437V35.2625Z" fill="#23252A"/>
<path d="M122.516 26.774C122.819 26.3002 123.24 25.9251 123.78 25.6487C124.332 25.3592 124.964 25.2144 125.675 25.2144C126.872 25.2144 127.78 25.5764 128.399 26.3002C129.031 27.024 129.347 28.0111 129.347 29.2613V35.2625H126.938V29.8338C126.938 29.281 126.853 28.827 126.682 28.4717C126.51 28.1163 126.274 27.8531 125.971 27.682C125.668 27.4978 125.313 27.4057 124.905 27.4057C124.405 27.4057 123.97 27.5175 123.602 27.7412C123.247 27.9518 122.97 28.2479 122.773 28.6296C122.589 29.0112 122.497 29.4456 122.497 29.9325V35.2625H120.088V20.5754H122.516V26.774Z" fill="#23252A"/>
<path d="M68.9101 25.6172C69.2238 25.8405 69.6478 25.9775 70.1144 25.9775C70.5809 25.9775 71.0048 25.8405 71.3185 25.6173V35.2623H68.9101V25.6172Z" fill="#23252A"/>
<path fill-rule="evenodd" clip-rule="evenodd" d="M59.5406 6.41838C60.5277 6.41838 61.3766 6.62895 62.0873 7.05008C62.7979 7.45805 63.3441 8.03059 63.7257 8.76756C64.1205 9.50454 64.3179 10.3863 64.3179 11.4128V12.1432L56.9824 12.1604C57.0548 12.9165 57.2692 13.5096 57.6258 13.9396C58.0864 14.4792 58.7643 14.7489 59.6592 14.7489C60.3171 14.7489 60.8567 14.6239 61.2778 14.3739C61.7121 14.1238 61.9951 13.7685 62.1267 13.3079H64.3574C64.1469 14.3739 63.6204 15.2095 62.7782 15.8149C61.9491 16.4203 60.8962 16.723 59.6196 16.723C58.6589 16.723 57.8035 16.5059 57.0533 16.0716C56.3164 15.6241 55.7373 15.0188 55.3161 14.2555C54.895 13.479 54.6844 12.5906 54.6844 11.5904C54.6844 10.5771 54.8885 9.68215 55.2964 8.90568C55.7044 8.12924 56.2769 7.52388 57.0138 7.08959C57.7508 6.64214 58.5931 6.41838 59.5406 6.41838ZM59.5604 8.3924C58.9945 8.3924 58.5141 8.51087 58.1193 8.74776C57.7377 8.98464 57.4482 9.33998 57.2508 9.81373C57.1498 10.056 57.0748 10.3259 57.0255 10.6232H61.9293C61.9293 9.95199 61.7121 9.41238 61.2778 9.0044C60.8567 8.59644 60.2842 8.3924 59.5604 8.3924Z" fill="#23252A"/>
<path d="M69.9567 6.41838C71.2859 6.41838 72.3717 6.76715 73.2139 7.46465C74.0693 8.14899 74.5629 9.07685 74.6945 10.2481H72.2861C72.1413 9.69538 71.8715 9.28077 71.4767 9.0044C71.0951 8.71487 70.6147 8.57013 70.0356 8.57013C69.5355 8.57013 69.0881 8.69515 68.6933 8.94519C68.3116 9.18207 68.0155 9.52422 67.8049 9.97166C67.5944 10.4191 67.4891 10.9522 67.4891 11.5707C67.4891 12.1893 67.5878 12.7222 67.7852 13.1697C67.9826 13.6171 68.2656 13.9659 68.6341 14.216C69.0157 14.4528 69.4632 14.5713 69.9764 14.5713C70.5818 14.5713 71.0819 14.4265 71.4767 14.1369C71.8847 13.8474 72.1545 13.4329 72.2861 12.8933H74.7142C74.6089 13.6566 74.3391 14.3278 73.9048 14.9069C73.4837 15.4728 72.9375 15.9202 72.2664 16.2492C71.5952 16.565 70.8318 16.723 69.9764 16.723C68.9894 16.723 68.1274 16.5124 67.3904 16.0913C66.6534 15.657 66.0809 15.0582 65.6729 14.2949C65.2781 13.5184 65.0807 12.6104 65.0807 11.5707C65.0807 10.5705 65.2847 9.68215 65.6927 8.90568C66.1138 8.12924 66.6863 7.52388 67.4101 7.08959C68.1471 6.64213 68.996 6.41838 69.9567 6.41838Z" fill="#23252A"/>
<path d="M55.9309 4.36534H51.7064V16.4664H49.1796V4.36534H44.9551V2.03596H55.9309V4.36534Z" fill="#23252A"/>
<path d="M78.3426 7.97793C78.6453 7.50416 79.0664 7.12901 79.606 6.85265C80.1587 6.56312 80.7904 6.41838 81.5011 6.41838C82.6987 6.41838 83.6068 6.78033 84.2253 7.50416C84.857 8.22798 85.1729 9.21502 85.1729 10.4652V16.4664H82.7645V11.0377C82.7645 10.485 82.6789 10.0309 82.5079 9.67561C82.3368 9.32029 82.0999 9.05707 81.7972 8.88598C81.4946 8.70174 81.1392 8.60964 80.7313 8.60964C80.2312 8.60964 79.7968 8.72147 79.4284 8.94519C79.073 9.15576 78.7966 9.45189 78.5992 9.83354C78.415 10.2152 78.3229 10.6494 78.3229 11.1363V16.4664H75.9145V1.77931H78.3426V7.97793Z" fill="#23252A"/>
<path d="M69.0364 23.9504C69.3094 24.2125 69.6588 24.3435 70.0846 24.3435C70.5105 24.3435 70.8599 24.2125 71.1328 23.9504C71.4058 23.6775 71.5423 23.3335 71.5423 22.9186C71.5423 22.5037 71.4058 22.1652 71.1328 21.9032C70.8599 21.6302 70.5105 21.4937 70.0846 21.4937C69.6588 21.4937 69.3094 21.6302 69.0364 21.9032C68.7634 22.1652 68.627 22.5037 68.627 22.9186C68.627 23.3335 68.7634 23.6775 69.0364 23.9504Z" fill="#F87C42"/>
<path fill-rule="evenodd" clip-rule="evenodd" d="M20.49 0.499132C11.2357 0.599687 2.1848 5.0258 2.1848 10.2112C2.1848 10.982 2.34872 11.7313 2.6581 12.4489C3.19292 14.102 4.77286 15.7546 7.43122 17.1281C10.3134 18.6173 14.228 19.6352 18.6409 19.8597C21.0725 19.8979 24.9589 18.9516 25.3965 14.8766V0.154093C25.3965 0.154093 26.4563 0.374795 27.8487 0.714278C29.2411 1.05376 34.7401 2.79788 37.0699 4.53567C39.3976 6.27192 40.9799 8.5453 40.9799 11.1794C40.9799 14.5119 38.4729 17.2512 35.0183 19.1247C32.1762 20.5214 28.2714 22.6618 27.8487 27.4438L26.7996 36.5826H26.1375L25.3965 27.7618C25.0269 23.4112 21.0157 22.5266 18.5395 22.31C13.8301 22.0731 9.55534 20.9859 6.30553 19.3068C2.6747 17.4308 0 14.6215 0 11.1794C0 7.73741 2.6747 4.92809 6.30553 3.0521C9.99874 1.14389 15.0156 6.10352e-05 20.49 6.10352e-05V0.499132ZM27.8487 14.685C28.3133 18.8798 32.1603 17.8163 34.7567 16.4392C37.2852 14.8444 38.5277 12.9694 38.5277 11.1794C38.5277 9.60743 37.5852 7.97934 35.6037 6.50134C33.7336 5.10643 31.0599 3.94919 27.8487 3.23329V14.685Z" fill="#23252A"/>
<circle cx="10.848" cy="12.9227" r="2.73472" fill="#F87C42"/>
</svg>
